<mxfile host="65bd71144e">
    <diagram id="ERD-Conceptual-Salud-Hoy" name="Diagrama ER Conceptual - Salud Hoy">
        <mxGraphModel dx="1173" dy="545" grid="1" gridSize="10" guides="1" tooltips="1" connect="1" arrows="1" fold="1" page="1" pageScale="1" pageWidth="1400" pageHeight="900" math="0" shadow="0">
            <root>
                <mxCell id="0"/>
                <mxCell id="1" parent="0"/>
                <mxCell id="ent_user" value="usuario_perfil" style="rounded=0;whiteSpace=wrap;html=1;strokeWidth=2;fontSize=16;fontStyle=1" parent="1" vertex="1">
                    <mxGeometry x="450" y="170" width="180" height="60" as="geometry"/>
                </mxCell>
                <mxCell id="attr_user_id" value="id" style="ellipse;whiteSpace=wrap;html=1;fontSize=12;fontStyle=5" parent="1" vertex="1">
                    <mxGeometry x="340" y="110" width="80" height="40" as="geometry"/>
                </mxCell>
                <mxCell id="attr_user_name" value="nombre" style="ellipse;whiteSpace=wrap;html=1;fontSize=12;" parent="1" vertex="1">
                    <mxGeometry x="500" y="80" width="80" height="40" as="geometry"/>
                </mxCell>
                <mxCell id="attr_user_goal" value="Objetivo" style="ellipse;whiteSpace=wrap;html=1;fontSize=12;" parent="1" vertex="1">
                    <mxGeometry x="695" y="110" width="80" height="40" as="geometry"/>
                </mxCell>
                <mxCell id="attr_user_created" value="fecha_creacion" style="ellipse;whiteSpace=wrap;html=1;fontSize=12;" parent="1" vertex="1">
                    <mxGeometry x="700" y="180" width="90" height="40" as="geometry"/>
                </mxCell>
                <mxCell id="conn_user_id" value="" style="endArrow=none;html=1;exitX=1;exitY=0.5;exitDx=0;exitDy=0;entryX=0;entryY=0.25;entryDx=0;entryDy=0;" parent="1" source="attr_user_id" target="ent_user" edge="1">
                    <mxGeometry width="50" height="50" relative="1" as="geometry"/>
                </mxCell>
                <mxCell id="conn_user_name" value="" style="endArrow=none;html=1;exitX=0.5;exitY=1;exitDx=0;exitDy=0;entryX=0.5;entryY=0;entryDx=0;entryDy=0;" parent="1" source="attr_user_name" target="ent_user" edge="1">
                    <mxGeometry width="50" height="50" relative="1" as="geometry"/>
                </mxCell>
                <mxCell id="conn_user_goal" value="" style="endArrow=none;html=1;exitX=0;exitY=0.5;exitDx=0;exitDy=0;entryX=1;entryY=0.25;entryDx=0;entryDy=0;" parent="1" source="attr_user_goal" target="ent_user" edge="1">
                    <mxGeometry width="50" height="50" relative="1" as="geometry"/>
                </mxCell>
                <mxCell id="conn_user_created" value="" style="endArrow=none;html=1;exitX=0;exitY=0.5;exitDx=0;exitDy=0;entryX=1;entryY=0.5;entryDx=0;entryDy=0;" parent="1" source="attr_user_created" target="ent_user" edge="1">
                    <mxGeometry width="50" height="50" relative="1" as="geometry"/>
                </mxCell>
                <mxCell id="ent_day" value="Sessiones" style="rounded=0;whiteSpace=wrap;html=1;strokeWidth=2;fontSize=16;fontStyle=1" parent="1" vertex="1">
                    <mxGeometry x="280" y="330" width="140" height="60" as="geometry"/>
                </mxCell>
                <mxCell id="attr_day_date" value="&lt;span style=&quot;font-weight: normal;&quot;&gt;fecha_dia&lt;/span&gt;" style="ellipse;whiteSpace=wrap;html=1;fontSize=12;fontStyle=5" parent="1" vertex="1">
                    <mxGeometry x="150" y="315" width="90" height="40" as="geometry"/>
                </mxCell>
                <mxCell id="conn_day_date" value="" style="endArrow=none;html=1;exitX=1;exitY=0.5;exitDx=0;exitDy=0;entryX=0;entryY=0.5;entryDx=0;entryDy=0;" parent="1" source="attr_day_date" target="ent_day" edge="1">
                    <mxGeometry width="50" height="50" relative="1" as="geometry"/>
                </mxCell>
                <mxCell id="rel_registra" value="registra" style="shape=rhombus;perimeter=rhombusPerimeter;whiteSpace=wrap;html=1;align=center;strokeWidth=2;fontSize=14;fontStyle=1;" parent="1" vertex="1">
                    <mxGeometry x="510" y="310" width="140" height="100" as="geometry"/>
                </mxCell>
                <mxCell id="attr_rel_done" value="completado" style="ellipse;whiteSpace=wrap;html=1;fontSize=12;" parent="1" vertex="1">
                    <mxGeometry x="540" y="440" width="80" height="40" as="geometry"/>
                </mxCell>
                <mxCell id="conn_rel_done" value="" style="endArrow=none;html=1;exitX=0.5;exitY=0;exitDx=0;exitDy=0;entryX=0.5;entryY=1;entryDx=0;entryDy=0;" parent="1" source="attr_rel_done" target="rel_registra" edge="1">
                    <mxGeometry width="50" height="50" relative="1" as="geometry"/>
                </mxCell>
                <mxCell id="ent_habit" value="habito" style="rounded=0;whiteSpace=wrap;html=1;strokeWidth=2;fontSize=16;fontStyle=1" parent="1" vertex="1">
                    <mxGeometry x="750" y="330" width="140" height="60" as="geometry"/>
                </mxCell>
                <mxCell id="attr_habit_key" value="&lt;span style=&quot;font-weight: normal;&quot;&gt;id_habito&lt;/span&gt;" style="ellipse;whiteSpace=wrap;html=1;fontSize=12;fontStyle=5" parent="1" vertex="1">
                    <mxGeometry x="940" y="280" width="80" height="40" as="geometry"/>
                </mxCell>
                <mxCell id="attr_habit_title" value="nombre" style="ellipse;whiteSpace=wrap;html=1;fontSize=12;" parent="1" vertex="1">
                    <mxGeometry x="950" y="340" width="80" height="40" as="geometry"/>
                </mxCell>
                <mxCell id="attr_habit_active" value="activo" style="ellipse;whiteSpace=wrap;html=1;fontSize=12;" parent="1" vertex="1">
                    <mxGeometry x="940" y="400" width="80" height="40" as="geometry"/>
                </mxCell>
                <mxCell id="conn_habit_key" value="" style="endArrow=none;html=1;exitX=0;exitY=0.5;exitDx=0;exitDy=0;entryX=1;entryY=0.25;entryDx=0;entryDy=0;" parent="1" source="attr_habit_key" target="ent_habit" edge="1">
                    <mxGeometry width="50" height="50" relative="1" as="geometry"/>
                </mxCell>
                <mxCell id="conn_habit_title" value="" style="endArrow=none;html=1;exitX=0;exitY=0.5;exitDx=0;exitDy=0;entryX=1;entryY=0.5;entryDx=0;entryDy=0;" parent="1" source="attr_habit_title" target="ent_habit" edge="1">
                    <mxGeometry width="50" height="50" relative="1" as="geometry"/>
                </mxCell>
                <mxCell id="conn_habit_active" value="" style="endArrow=none;html=1;exitX=0;exitY=0.5;exitDx=0;exitDy=0;entryX=1;entryY=0.75;entryDx=0;entryDy=0;" parent="1" source="attr_habit_active" target="ent_habit" edge="1">
                    <mxGeometry width="50" height="50" relative="1" as="geometry"/>
                </mxCell>
                <mxCell id="conn_day_rel" value="" style="endArrow=none;html=1;exitX=1;exitY=0.5;exitDx=0;exitDy=0;entryX=0;entryY=0.5;entryDx=0;entryDy=0;strokeWidth=2;" parent="1" source="ent_day" target="rel_registra" edge="1">
                    <mxGeometry width="50" height="50" relative="1" as="geometry"/>
                </mxCell>
                <mxCell id="conn_rel_habit" value="" style="endArrow=none;html=1;exitX=1;exitY=0.5;exitDx=0;exitDy=0;entryX=0;entryY=0.5;entryDx=0;entryDy=0;strokeWidth=2;" parent="1" source="rel_registra" target="ent_habit" edge="1">
                    <mxGeometry width="50" height="50" relative="1" as="geometry"/>
                </mxCell>
                <mxCell id="card_day" value="(1,n)" style="text;html=1;align=center;verticalAlign=middle;resizable=0;points=[];autosize=1;fontSize=14;fontStyle=1" parent="1" vertex="1">
                    <mxGeometry x="420" y="320" width="60" height="30" as="geometry"/>
                </mxCell>
                <mxCell id="card_habit" value="(1,n)" style="text;html=1;align=center;verticalAlign=middle;resizable=0;points=[];autosize=1;fontSize=14;fontStyle=1" parent="1" vertex="1">
                    <mxGeometry x="685" y="320" width="50" height="30" as="geometry"/>
                </mxCell>
                <mxCell id="title" value="&lt;h1&gt;Diagrama Entidad-Relación Conceptual&lt;/h1&gt;&lt;p style=&quot;font-size: 13px;&quot;&gt;&lt;b&gt;Sistema:&lt;/b&gt; Salud Hoy - Seguimiento de Hábitos Saludables&lt;/p&gt;&lt;p style=&quot;font-size: 13px;&quot;&gt;&lt;b&gt;Modelo:&lt;/b&gt; Conceptual (Notación tradicional)&lt;/p&gt;" style="text;html=1;spacing=5;spacingTop=-20;whiteSpace=wrap;overflow=hidden;rounded=0;fontSize=13;" parent="1" vertex="1">
                    <mxGeometry x="50" y="760" width="400" height="100" as="geometry"/>
                </mxCell>
                <mxCell id="legend" value="&lt;h2 style=&quot;font-size: 14px;&quot;&gt;Leyenda&lt;/h2&gt;&lt;p&gt;&lt;span style=&quot;background-color: rgb(255, 217, 102);&quot;&gt;■&lt;/span&gt; Entidades&lt;br&gt;&lt;span style=&quot;background-color: rgb(130, 179, 102);&quot;&gt;◆&lt;/span&gt; Relaciones&lt;br&gt;○ Atributos&lt;/p&gt;&lt;p&gt;&lt;b&gt;&lt;u&gt;Subrayado&lt;/u&gt;&lt;/b&gt; = Clave primaria&lt;br&gt;&lt;b&gt;(1,n)&lt;/b&gt; = Cardinalidad mínima y máxima&lt;/p&gt;" style="text;html=1;spacing=5;spacingTop=-20;whiteSpace=wrap;overflow=hidden;rounded=0;fontSize=12;" parent="1" vertex="1">
                    <mxGeometry x="410" y="740" width="280" height="130" as="geometry"/>
                </mxCell>
                <mxCell id="relations_info" value="&lt;h2 style=&quot;font-size: 14px;&quot;&gt;Relaciones&lt;/h2&gt;&lt;p&gt;&lt;b&gt;dia - registra - habito&lt;/b&gt;&lt;br&gt;Relación M:N (muchos a muchos)&lt;/p&gt;&lt;p&gt;• Un día puede tener muchos hábitos registrados&lt;br&gt;• Un hábito puede estar registrado en muchos días&lt;/p&gt;&lt;p&gt;• Atributo de relación: &lt;i&gt;done&lt;/i&gt; (indica si está completado)&lt;/p&gt;" style="text;html=1;spacing=5;spacingTop=-20;whiteSpace=wrap;overflow=hidden;rounded=0;fontSize=12;" parent="1" vertex="1">
                    <mxGeometry x="680" y="740" width="350" height="140" as="geometry"/>
                </mxCell>
                <mxCell id="note_user" value="&lt;b&gt;Nota:&lt;/b&gt; usuario_perfil es independiente&lt;br&gt;Almacena información del usuario único" style="text;html=1;align=left;verticalAlign=middle;resizable=0;points=[];autosize=1;fontSize=11;" parent="1" vertex="1">
                    <mxGeometry x="40" y="710" width="240" height="40" as="geometry"/>
                </mxCell>
            </root>
        </mxGraphModel>
    </diagram>
</mxfile>